<?xml version="1.0" encoding="UTF-8" standalone="no"?>
<!-- Created with Inkscape (http://www.inkscape.org/) -->

<svg
   xmlns:dc="http://purl.org/dc/elements/1.1/"
   xmlns:cc="http://creativecommons.org/ns#"
   xmlns:rdf="http://www.w3.org/1999/02/22-rdf-syntax-ns#"
   xmlns:svg="http://www.w3.org/2000/svg"
   xmlns="http://www.w3.org/2000/svg"
   xmlns:sodipodi="http://sodipodi.sourceforge.net/DTD/sodipodi-0.dtd"
   xmlns:inkscape="http://www.inkscape.org/namespaces/inkscape"
   width="744.09448"
   height="873.35999"
   id="svg3009"
   version="1.1"
   inkscape:version="0.48.5 r10040"
   sodipodi:docname="Nouveau document 2">
  <defs
     id="defs3011" />
  <sodipodi:namedview
     id="base"
     pagecolor="#ffffff"
     bordercolor="#666666"
     borderopacity="1.0"
     inkscape:pageopacity="0.0"
     inkscape:pageshadow="2"
     inkscape:zoom="0.35"
     inkscape:cx="-57.857143"
     inkscape:cy="520"
     inkscape:document-units="px"
     inkscape:current-layer="layer1"
     showgrid="false"
     inkscape:window-width="1366"
     inkscape:window-height="715"
     inkscape:window-x="0"
     inkscape:window-y="0"
     inkscape:window-maximized="1" />
  <metadata
     id="metadata3014">
    <rdf:RDF>
      <cc:Work
         rdf:about="">
        <dc:format>image/svg+xml</dc:format>
        <dc:type
           rdf:resource="http://purl.org/dc/dcmitype/StillImage" />
        <dc:title></dc:title>
      </cc:Work>
    </rdf:RDF>
  </metadata>
  <g
     inkscape:label="Calque 1"
     inkscape:groupmode="layer"
     id="layer1"
     transform="translate(0,-178.99931)">
    <g
       id="g4063"
       transform="matrix(1.759172,0,0,1.759172,-443.26887,-427.91395)">
      <path
         sodipodi:nodetypes="cccsccscscsc"
         inkscape:connector-curvature="0"
         id="path3050"
         d="m 325.02603,495.2158 c -85.58708,5.08363 167.85702,-119.94272 248.69654,-31.34829 71.66673,77.57408 52.24718,160.9213 52.24718,160.9213 0,0 -33.87103,-28.72792 -48.06741,-40.75281 -31.64369,-26.80351 -73.14603,-34.48312 -73.14603,-34.48312 l 8.35955,39.70784 c 0,0 -77.32583,-43.88763 -102.40447,-20.89888 -19.48683,17.86293 -56.42694,-4.17976 -56.42694,-4.17976 0,0 -22.46631,33.96067 -16.19662,86.20784 6.26965,52.24718 10.84512,64.74938 10.84512,64.74938 0,0 -49.44915,-80.66169 -49.44915,-137.08864 0,-56.42695 25.54223,-82.83486 25.54223,-82.83486 z"
         style="fill:none;stroke:#000000;stroke-width:21.12055779;stroke-linecap:butt;stroke-linejoin:miter;stroke-miterlimit:4;stroke-opacity:1;stroke-dasharray:none" />
      <path
         sodipodi:nodetypes="cssc"
         inkscape:connector-curvature="0"
         id="path3052"
         d="m 338.99916,658.49924 c 0,0 3.80037,87.50393 38.53596,91.94056 40.80646,5.21206 157.60324,7.34131 174.73066,-6.65498 51.57711,-42.14804 49.47192,-140.48801 49.47192,-140.48801"
         style="fill:none;stroke:#000000;stroke-width:21.12055779;stroke-linecap:butt;stroke-linejoin:miter;stroke-miterlimit:4;stroke-opacity:1;stroke-dasharray:none" />
      <rect
         rx="12.816194"
         ry="11.41436"
         y="613.03259"
         x="418.32669"
         height="80.778564"
         width="25.632387"
         id="rect3078"
         style="fill:#000000;fill-opacity:1;stroke:none" />
      <rect
         rx="12.816194"
         ry="11.41436"
         y="613.03259"
         x="492.05228"
         height="80.778564"
         width="25.632387"
         id="rect3078-2"
         style="fill:#000000;fill-opacity:1;stroke:none" />
    </g>
  </g>
</svg>
